Coordinates
version=1
nRows=22
nColumns=24
inDegrees=yes

Units are S.I. units (second, meters, Newtons, ...)
Angles are in degrees.

endheader
time	pelvis_tilt	pelvis_list	pelvis_rotation	pelvis_tx	pelvis_ty	pelvis_tz	hip_flexion_r	hip_adduction_r	hip_rotation_r	knee_angle_r	ankle_angle_r	subtalar_angle_r	mtp_angle_r	hip_flexion_l	hip_adduction_l	hip_rotation_l	knee_angle_l	ankle_angle_l	subtalar_angle_l	mtp_angle_l	lumbar_extension	lumbar_bending	lumbar_rotation
      4.57000000	    -20.10673405	      1.06733712	     -6.08670500	     -1.39843710	     -0.04154505	     -0.29858538	      2.77742098	      1.51056092	     -3.98480723	    -14.91910299	     11.70965641	      2.19382975	      2.07727642	     47.59445272	     -4.28614077	    -20.17843217	    -12.52797411	     -0.08030056	      8.36573965	     24.48248675	     20.80669382	      1.06962037	     -3.73174395
      4.57500000	    -20.06450570	      1.28423272	     -6.12103081	     -1.39111615	     -0.04234195	     -0.29914209	      2.54174809	      1.09147695	     -4.08563792	    -15.42882672	     11.40466079	      2.70159291	      2.28834997	     47.58823035	     -4.06917111	    -20.07098793	    -12.95759102	     -0.25260218	      8.15663551	     24.38458475	     20.88342662	      0.86022500	     -3.65011523
      4.58000000	    -20.01115801	      1.45499559	     -6.10983764	     -1.38370537	     -0.04310825	     -0.29974637	      2.28483077	      0.72090661	     -4.18003198	    -15.93266987	     10.98000435	      3.09698480	      2.53608308	     47.59017577	     -3.86433447	    -19.94512298	    -13.49730795	     -0.48673987	      7.91667411	     24.33956014	     20.95469514	      0.67394328	     -3.65329704
      4.58500000	    -19.98674397	      1.55648451	     -6.11980670	     -1.37627712	     -0.04384855	     -0.30023237	      2.05762132	      0.45752707	     -4.08832282	    -16.43778229	     10.40755362	      3.26378658	      2.57316514	     47.64477833	     -3.77015421	    -19.87339854	    -14.16095931	     -0.77139510	      7.84480988	     24.36968900	     21.05309109	      0.55310937	     -3.66688984
      4.59000000	    -19.97344003	      1.84363414	     -6.12091843	     -1.36858946	     -0.04455718	     -0.30091537	      1.91677913	     -0.06787963	     -4.21427289	    -17.06044037	      9.92818986	      3.81190077	      2.91820744	     47.63896587	     -3.46027918	    -19.70840887	    -14.74258779	     -1.27982217	      7.27002016	     24.36998592	     21.21938135	      0.27011203	     -3.58451376
      4.59500000	    -19.93209877	      2.05598854	     -6.07046595	     -1.36088219	     -0.04519609	     -0.30160203	      1.74197998	     -0.50995078	     -4.36171573	    -17.67766898	      9.29703134	      4.23852836	      3.32693526	     47.63347702	     -3.18994406	    -19.49088951	    -15.42000123	     -1.87983081	      6.74995247	     24.44546344	     21.34834348	      0.02550536	     -3.61247638
      4.60000000	    -19.89971805	      2.27280859	     -6.03715061	     -1.35312136	     -0.04576014	     -0.30232941	      1.62682135	     -0.96517316	     -4.48320123	    -18.36334603	      8.54055790	      4.62375098	      3.87376442	     47.61943985	     -2.92138421	    -19.23630372	    -16.10288240	     -2.57157112	      6.17725859	     24.56456258	     21.49202527	     -0.20562566	     -3.62967207
      4.60500000	    -19.90337855	      2.53873589	     -5.99718389	     -1.34526650	     -0.04629522	     -0.30297199	      1.55651145	     -1.45314289	     -4.48650017	    -19.04730144	      7.74652937	      4.91755480	      4.27448754	     47.66260669	     -2.62615150	    -18.99638828	    -16.86292281	     -3.38310468	      5.52324345	     24.57087553	     21.69773184	     -0.50379997	     -3.60769483
      4.61000000	    -19.90360449	      2.79890234	     -5.93734849	     -1.33739408	     -0.04675967	     -0.30372717	      1.54296861	     -1.95641928	     -4.56012438	    -19.82417141	      6.84802383	      5.25565091	      4.73857024	     47.69910664	     -2.29791694	    -18.63174603	    -17.62656509	     -4.23898440	      4.72126275	     24.50744794	     21.89667011	     -0.79191873	     -3.62874212
      4.61500000	    -19.87446503	      3.07090511	     -5.76462323	     -1.32937465	     -0.04714049	     -0.30465302	      1.49389548	     -2.51448701	     -4.90429504	    -20.54038175	      5.71825350	      5.50135976	      6.68826788	     47.70873367	     -1.86071176	    -18.14860893	    -18.40353353	     -5.09820588	      3.89237215	     24.43314231	     22.07931355	     -1.13539493	     -3.72996580
      4.62000000	    -19.89302208	      3.33989253	     -5.70013396	     -1.32150385	     -0.04746219	     -0.30549975	      1.60143956	     -3.03417740	     -4.87809544	    -21.44882369	      4.63726731	      5.79586215	      7.09140470	     47.77548871	     -1.49152268	    -17.59011393	    -19.21236553	     -5.93217449	      2.89190180	     24.06930082	     22.29252229	     -1.41868031	     -3.69037406
      4.62500000	    -19.91170144	      3.62248941	     -5.57470412	     -1.31353014	     -0.04774928	     -0.30646166	      1.75462862	     -3.60197331	     -5.07345130	    -22.41352895	      3.41365512	      6.09970751	      7.93679205	     47.84453236	     -1.04091002	    -16.90432535	    -20.04569333	     -6.62698587	      1.82763057	     23.44835319	     22.51950799	     -1.73994758	     -3.75563060
      4.63000000	    -19.91964495	      3.93742401	     -5.40039087	     -1.30557805	     -0.04796110	     -0.30749513	      1.93790078	     -4.20800395	     -5.22980506	    -23.39928453	      2.05702025	      6.22757887	      9.46341747	     47.91856822	     -0.51890502	    -16.22569237	    -20.92635667	     -7.24035873	      0.81721167	     22.38055291	     22.72741682	     -2.11628858	     -3.88979090
      4.63500000	    -19.91247097	      4.25017201	     -5.27983605	     -1.29758875	     -0.04806209	     -0.30848735	      2.16491608	     -4.80510050	     -5.27566854	    -24.43723501	      0.53079312	      6.25515170	     10.92689167	     47.94413422	     -0.01274210	    -15.49466367	    -21.78132698	     -7.65663714	     -0.20519377	     21.22886575	     22.92527534	     -2.46190877	     -3.89801010
      4.64000000	    -19.88876313	      4.58535119	     -5.13777628	     -1.28945262	     -0.04808260	     -0.30946403	      2.38827985	     -5.41537594	     -5.26758373	    -25.45074135	     -1.19194855	      6.06560056	     12.83203707	     47.93490213	      0.53046711	    -14.85527177	    -22.66079112	     -7.83661943	     -1.09218653	     19.72589917	     23.13169245	     -2.84652840	     -3.94768809
      4.64500000	    -19.85311084	      4.86952237	     -5.03854106	     -1.28163426	     -0.04808784	     -0.31050252	      2.74064713	     -5.98288228	     -5.20641633	    -26.67472577	     -2.89250915	      6.01971626	     14.15951263	     47.91541568	      1.03049788	    -14.10861184	    -23.50684487	     -7.96966118	     -2.10463222	     18.52967728	     23.26087829	     -3.14935687	     -3.92732949
      4.65000000	    -19.80149238	      5.18974281	     -4.91657219	     -1.27359846	     -0.04801272	     -0.31146801	      3.06841393	     -6.56215579	     -5.07796757	    -27.81758513	     -4.83966811	      5.61513427	     16.22188205	     47.84614219	      1.56304981	    -13.55763007	    -24.37673256	     -7.80955884	     -2.82830756	     16.78317763	     23.41464241	     -3.51245153	     -3.95534372
      4.65500000	    -19.73104310	      5.46198006	     -4.85546277	     -1.26590461	     -0.04791620	     -0.31244394	      3.51922805	     -7.08573661	     -4.83878691	    -29.15717046	     -6.75825515	      5.32148341	     17.63187037	     47.74686345	      2.03164669	    -12.97251026	    -25.18489157	     -7.64686622	     -3.66464009	     15.50370154	     23.48461690	     -3.79396408	     -3.89581251
      4.66000000	    -19.66895880	      5.76672297	     -4.76094567	     -1.25801371	     -0.04778968	     -0.31332704	      3.97650497	     -7.61074123	     -4.56094900	    -30.44304028	     -8.85024063	      4.72837801	     19.47548299	     47.61220880	      2.52330592	    -12.59256127	    -25.98191296	     -7.21928613	     -4.17833409	     13.88539984	     23.60307541	     -4.13891783	     -3.89851320
      4.66500000	    -19.51970125	      6.04139917	     -4.72090934	     -1.25039412	     -0.04755918	     -0.31401379	      4.45999136	     -8.05385149	     -4.12899655	    -31.92793464	    -10.85210967	      4.15164613	     19.66298715	     47.33880731	      2.94130994	    -12.28564071	    -26.61985828	     -6.89946440	     -4.84944886	     13.56198949	     23.58109308	     -4.46001485	     -3.84406409
      4.67000000	    -19.57018952	      6.32047010	     -4.66488360	     -1.24289284	     -0.04756785	     -0.31502833	      5.23423666	     -8.54229807	     -3.76267715	    -33.41153008	    -12.95464067	      3.57049662	     21.87145313	     47.30182115	      3.38880218	    -11.97296839	    -27.38796384	     -6.29205841	     -5.19908238	     11.52071149	     23.75534128	     -4.72295590	     -3.75484167
      4.67500000	    -19.42139912	      6.59038912	     -4.64221669	     -1.23540896	     -0.04729508	     -0.31571980	      5.82036938	     -8.95126661	     -3.25254607	    -34.91953962	    -15.05334732	      2.80186619	     22.96669887	     46.97338671	      3.78052527	    -11.86141201	    -27.98983457	     -5.66271598	     -5.47365805	     10.51659761	     23.71452285	     -5.02889487	     -3.68799544
